#!OML:ASF E:/inclinewalkrobotboard/Project1/Captureday1/Session1/subject1.ASF
:FULLY-SPECIFIED
:DEGREES
76
root 0 0 0 1.42715900450813 -3.539785779077767 1.889762388005156
lowerback 11.967126869159877 0.8934432705828939 -0.0969761078708018
upperback -4.434790136447742 1.1200790037614061 -0.6295204690063457
thorax -11.55466707561779 0.5145071974934379 -0.8695610296110295
lowerneck -6.094941868236555 1.6531549831648567 4.624526620223321
upperneck 18.4473437818567 3.157426290417559 -8.270116316211872
head 6.779490015904181 1.1636724893643682 -3.1893291520084097
rclavicle -1.7433350995975155E-16 -9.704576339439204E-16
rhumerus 22.22706668590854 15.950238266731327 -46.541008087485906
rradius 74.31341059887077
rwrist 27.892545978685682
rhand -34.85646634004408 -59.76204738790106
rfingers 7.12502
rthumb -8.016387231993559 -89.57453778765269
lclavicle -1.7277900903766474E-16 -9.490197070068752E-16
lhumerus 22.791130317462756 -12.79513934929356 43.63347571551829
lradius 71.31903859174065
lwrist -23.63572495459141
lhand -45.33590318846055 -73.19252037528854
lfingers 7.12502
lthumb -18.09318783847363 -43.97454778715303
rfemur -25.59832892021997 -2.1521729326000143 16.69066035850725
rtibia 54.69363568087548
rfoot -27.320206485272415 -16.46498221607423
rtoes -17.67518179402517
lfemur -21.797909549258442 1.2306558428209913 -18.181462662045824
ltibia 48.634444402341714
lfoot -23.724039661353213 -3.60380958236016
ltoes -15.416744477017039
77
root 0 0 0 1.426308890091804 -3.537209377607827 1.892372406199921
lowerback 11.96680064378018 0.8919285666939374 -0.10043992234573074
upperback -4.43359168836629 1.1176948209880422 -0.6290927427969292
thorax -11.553354379627795 0.5134224778842575 -0.8667703636520013
lowerneck -6.0968554195916465 1.6526280246177054 4.622789602923913
upperneck 18.44742681217174 3.1564375179471287 -8.268613736467133
head 6.779790275126327 1.1632636406950616 -3.1886034672563284
rclavicle -1.749661219728672E-16 -9.707003277096715E-16
rhumerus 22.21350740939159 15.941835839252237 -46.549527408635406
rradius 74.3014615800713
rwrist 27.886431224808177
rhand -34.852075947462616 -59.742084140694416
rfingers 7.12502
rthumb -8.01206566349362 -89.55471376148655
lclavicle -1.7320019499715645E-16 -9.483483780771003E-16
lhumerus 22.789975483897532 -12.794609858128494 43.634523243874725
lradius 71.31794969065265
lwrist -23.634687752735992
lhand -45.33543104111048 -73.18880451282567
lfingers 7.12502
lthumb -18.092431765574837 -43.972133263224066
rfemur -25.585561389715124 -2.145934904467805 16.69987213780651
rtibia 54.67906665101138
rfoot -27.303822673770558 -16.45663639092562
rtoes -17.656993456069635
lfemur -21.81319323519912 1.2346453376336213 -18.178856932970252
ltibia 48.656457431987064
lfoot -23.740485197870864 -3.60540199335234
ltoes -15.430296857119124
78
root 0 0 0 1.4267017169539438 -3.5384549468984705 1.8911083741276442
lowerback 11.966983142863953 0.8926693430642678 -0.09873112142212637
upperback -4.434170138567177 1.1188715173476207 -0.6293102906476015
thorax -11.55399873141248 0.5139599300436468 -0.8681702387834563
lowerneck -6.095895983615903 1.6528849888197705 4.62366700953543
upperneck 18.447393768775218 3.156912243427777 -8.269368858481961
head 6.779646057146573 1.1634569935479888 -3.1889756261820486
rclavicle -1.7446408707279773E-16 -9.7048358841592E-16
rhumerus 22.22310748035946 15.947665715069936 -46.54342295202643
rradius 74.30972090897583
rwrist 27.890742760259187
rhand -34.85517668595936 -59.75584107850972
rfingers 7.12502
rthumb -8.015106821403373 -89.568359970797
lclavicle -1.72722939568445E-16 -9.490033252042338E-16
lhumerus 22.793781493354157 -12.795828062884974 43.631600205796204
lradius 71.32113997215843
lwrist -23.63714582605453
lhand -45.33682194256728 -73.19717172748668
lfingers 7.12502
lthumb -18.094059667857117 -43.97908650150241
rfemur -25.58604611082629 -2.146315136202528 16.69936858319159
rtibia 54.68006811370213
rfoot -27.304808356248248 -16.45659419377154
rtoes -17.65771862051191
lfemur -21.81021616669515 1.2338440501147532 -18.179217416939426
ltibia 48.65245581638152
lfoot -23.737588755035652 -3.6051110269401376
ltoes -15.42769748351584
79
root 0 0 0 1.426920765962135 -3.539318380238328 1.8901228787257478
lowerback 11.967054283475354 0.8931722483003292 -0.09752901248766199
upperback -4.434479778799937 1.119669094358849 -0.6293988605287714
thorax -11.554312307790054 0.5143200487310543 -0.8690583109730105
lowerneck -6.09547149915484 1.652968266183892 4.624104520614444
upperneck 18.44739166396774 3.157108196646631 -8.269685483206992
head 6.779591382344023 1.1635389072045141 -3.189150036855217
rclavicle -1.7439095837127654E-16 -9.704749787938349E-16
rhumerus 22.22537821639652 15.949133381055999 -46.54200993703166
rradius 74.3118302709685
rwrist 27.891783410856256
rhand -34.85590433763626 -59.75937319153006
rfingers 7.12502
rthumb -8.015833280385733 -89.57191056573679
lclavicle -1.7273222267338383E-16 -9.48980720939154E-16
lhumerus 22.793520963623802 -12.795741924133695 43.631822823341054
lradius 71.32091741036805
lwrist -23.63697471319539
lhand -45.33670778704273 -73.19667337387921
lfingers 7.12502
lthumb -18.09393907600181 -43.978576742003554
rfemur -25.589988705741987 -2.1481937279703853 16.696560041059918
rtibia 54.68435609844616
rfoot -27.309894948062762 -16.459359787776865
rtoes -17.663392517439398
lfemur -21.807081414775688 1.232991016701984 -18.179739508202754
ltibia 48.64762586781673
lfoot -23.734031342896962 -3.604661513312634
ltoes -15.424664316603376
80
root 0 0 0 1.4270476719647847 -3.5394641693645257 1.8900854297719192
lowerback 11.967092217948284 0.8932558247824292 -0.09739894047212716
upperback -4.4346399898144515 1.1197866520898105 -0.6294683480900497
thorax -11.554504602519476 0.5143748563259254 -0.8692243395023352
lowerneck -6.095172228688098 1.6530884201065466 4.624317889415063
upperneck 18.447358048691008 3.1573009612577185 -8.269933406740616
head 6.779529043711348 1.1636197074404602 -3.189243811882219
rclavicle -1.743521736266271E-16 -9.70463789877064E-16
rhumerus 22.226493128210656 15.949857575957333 -46.541348858132764
rradius 74.31287373840652
rwrist 27.892289708088395
rhand -34.8562761435009 -59.76114321690699
rfingers 7.12502
rthumb -8.016200261813971 -89.57365246992315
lclavicle -1.72757886423249E-16 -9.490074919175292E-16
lhumerus 22.792606009737423 -12.795508395519027 43.632453591675386
lradius 71.32019655744229
lwrist -23.63649569582332
lhand -45.33639968758348 -73.19507742545363
lfingers 7.12502
lthumb -18.093656687784847 -43.97707225777104
rfemur -25.594493353045397 -2.1503402597938424 16.693374733142846
rtibia 54.68935936199468
rfoot -27.31545997557509 -16.46239385860101
rtoes -17.66977020790572
lfemur -21.801786546695546 1.2316534829166326 -18.180735548674395
ltibia 48.640081085571786
lfoot -23.72826526786985 -3.604205521196608
ltoes -15.420137551517353
